<svg width="326" height="338" viewBox="0 0 326 338" fill="none" xmlns="http://www.w3.org/2000/svg">
<rect x="263" y="147" width="8" height="64" rx="4" fill="#3FB6A8" fill-opacity="0.3"/>
<path d="M238.51 152.86L257.829 147.684C268.498 144.825 279.465 151.156 282.323 161.826L287.5 181.144L268.181 186.321C257.512 189.179 246.545 182.848 243.686 172.178L238.51 152.86Z" fill="#3FB6A8" fill-opacity="0.4"/>
<path d="M67 81C67 64.4315 80.4315 51 97 51H229C245.569 51 259 64.4315 259 81V195C259 239.183 223.183 275 179 275H147C102.817 275 67 239.183 67 195V81Z" fill="url(#paint0_linear_1_525)"/>
<path d="M97 51.5H229C245.292 51.5 258.5 64.7076 258.5 81V195C258.5 238.907 222.907 274.5 179 274.5H147C103.093 274.5 67.5 238.907 67.5 195V81L67.5098 80.2383C67.9138 64.2979 80.9623 51.5 97 51.5Z" stroke="white" stroke-opacity="0.1"/>
<g filter="url(#filter0_d_1_525)">
<rect x="67" y="51" width="192" height="224" fill="white" fill-opacity="0.01" shape-rendering="crispEdges"/>
</g>
<path d="M68 82C68 65.4315 81.4315 52 98 52H228C244.569 52 258 65.4315 258 82V194C258 238.183 222.183 274 178 274H148C103.817 274 68 238.183 68 194V82Z" fill="url(#paint1_linear_1_525)"/>
<path d="M163 111C179.016 111 192 123.984 192 140V161H134V140C134 123.984 146.984 111 163 111Z" stroke="#3FB6A8" stroke-opacity="0.6" stroke-width="6"/>
<rect x="115" y="154" width="96" height="80" rx="16" fill="#3FB6A8"/>
<g filter="url(#filter1_dd_1_525)">
<rect x="115" y="154" width="96" height="80" rx="16" fill="white" fill-opacity="0.01" shape-rendering="crispEdges"/>
</g>
<rect x="157" y="184" width="12" height="12" rx="6" fill="#141E1D"/>
<rect x="161" y="198" width="4" height="16" rx="2" fill="#141E1D"/>
<rect width="24" height="7.99664" rx="3.99832" transform="matrix(1 0 -0.176327 1 179.71 162)" fill="white" fill-opacity="0.2"/>
<path d="M273.95 40.55L279.6 34.9L278.175 33.475L273.95 37.7L271.85 35.6L270.425 37.025L273.95 40.55ZM275 47C272.683 46.4167 270.771 45.0875 269.263 43.0125C267.754 40.9375 267 38.6333 267 36.1V30L275 27L283 30V36.1C283 38.6333 282.246 40.9375 280.738 43.0125C279.229 45.0875 277.317 46.4167 275 47ZM275 44.9C276.733 44.35 278.167 43.25 279.3 41.6C280.433 39.95 281 38.1167 281 36.1V31.375L275 29.125L269 31.375V36.1C269 38.1167 269.567 39.95 270.7 41.6C271.833 43.25 273.267 44.35 275 44.9Z" fill="#3FB6A8" fill-opacity="0.6"/>
<defs>
<filter id="filter0_d_1_525" x="29" y="38" width="268" height="300" filterUnits="userSpaceOnUse" color-interpolation-filters="sRGB">
<feFlood flood-opacity="0" result="BackgroundImageFix"/>
<feColorMatrix in="SourceAlpha" type="matrix" values="0 0 0 0 0 0 0 0 0 0 0 0 0 0 0 0 0 0 127 0" result="hardAlpha"/>
<feMorphology radius="12" operator="erode" in="SourceAlpha" result="effect1_dropShadow_1_525"/>
<feOffset dy="25"/>
<feGaussianBlur stdDeviation="25"/>
<feComposite in2="hardAlpha" operator="out"/>
<feColorMatrix type="matrix" values="0 0 0 0 0 0 0 0 0 0 0 0 0 0 0 0 0 0 0.25 0"/>
<feBlend mode="normal" in2="BackgroundImageFix" result="effect1_dropShadow_1_525"/>
<feBlend mode="normal" in="SourceGraphic" in2="effect1_dropShadow_1_525" result="shape"/>
</filter>
<filter id="filter1_dd_1_525" x="103" y="152" width="120" height="104" filterUnits="userSpaceOnUse" color-interpolation-filters="sRGB">
<feFlood flood-opacity="0" result="BackgroundImageFix"/>
<feColorMatrix in="SourceAlpha" type="matrix" values="0 0 0 0 0 0 0 0 0 0 0 0 0 0 0 0 0 0 127 0" result="hardAlpha"/>
<feMorphology radius="4" operator="erode" in="SourceAlpha" result="effect1_dropShadow_1_525"/>
<feOffset dy="4"/>
<feGaussianBlur stdDeviation="3"/>
<feComposite in2="hardAlpha" operator="out"/>
<feColorMatrix type="matrix" values="0 0 0 0 0.247059 0 0 0 0 0.713726 0 0 0 0 0.658824 0 0 0 0.2 0"/>
<feBlend mode="normal" in2="BackgroundImageFix" result="effect1_dropShadow_1_525"/>
<feColorMatrix in="SourceAlpha" type="matrix" values="0 0 0 0 0 0 0 0 0 0 0 0 0 0 0 0 0 0 127 0" result="hardAlpha"/>
<feMorphology radius="3" operator="erode" in="SourceAlpha" result="effect2_dropShadow_1_525"/>
<feOffset dy="10"/>
<feGaussianBlur stdDeviation="7.5"/>
<feComposite in2="hardAlpha" operator="out"/>
<feColorMatrix type="matrix" values="0 0 0 0 0.247059 0 0 0 0 0.713726 0 0 0 0 0.658824 0 0 0 0.2 0"/>
<feBlend mode="normal" in2="effect1_dropShadow_1_525" result="effect2_dropShadow_1_525"/>
<feBlend mode="normal" in="SourceGraphic" in2="effect2_dropShadow_1_525" result="shape"/>
</filter>
<linearGradient id="paint0_linear_1_525" x1="163" y1="51" x2="163" y2="275" gradientUnits="userSpaceOnUse">
<stop stop-color="#243432"/>
<stop offset="1" stop-color="#1A2625"/>
</linearGradient>
<linearGradient id="paint1_linear_1_525" x1="53.3312" y1="69.1393" x2="272.669" y2="256.861" gradientUnits="userSpaceOnUse">
<stop stop-color="white" stop-opacity="0.05"/>
<stop offset="1" stop-color="white" stop-opacity="0"/>
</linearGradient>
</defs>
</svg>
