<svg width="248" height="248" viewBox="0 0 248 248" fill="none" xmlns="http://www.w3.org/2000/svg">
<rect x="12" y="2" width="224" height="224" rx="112" fill="#111A1F"/>
<rect x="12.5" y="2.5" width="223" height="223" rx="111.5" stroke="white" stroke-opacity="0.05"/>
<g filter="url(#filter0_dd_1_344)">
<rect x="12" y="2" width="224" height="224" rx="112" fill="white" fill-opacity="0.01" shape-rendering="crispEdges"/>
</g>
<rect x="121" y="90" width="6" height="80" rx="3" fill="#3FB6A8" fill-opacity="0.8"/>
<rect x="112" y="50" width="24" height="40" rx="12" fill="#3FB6A8"/>
<path d="M86.57 127.46L103.541 110.489C112.913 101.117 128.109 101.117 137.482 110.489L120.511 127.46C111.139 136.833 95.9426 136.833 86.57 127.46Z" fill="#3FB6A8" fill-opacity="0.8"/>
<path d="M110.519 110.481C119.892 101.108 135.088 101.108 144.461 110.481L161.431 127.451C152.059 136.824 136.863 136.824 127.49 127.451L110.519 110.481Z" fill="#3FB6A8" fill-opacity="0.8"/>
<g filter="url(#filter1_f_1_344)">
<rect x="108" y="146" width="32" height="8" rx="4" fill="#3FB6A8" fill-opacity="0.3"/>
</g>
<defs>
<filter id="filter0_dd_1_344" x="0" y="0" width="248" height="248" filterUnits="userSpaceOnUse" color-interpolation-filters="sRGB">
<feFlood flood-opacity="0" result="BackgroundImageFix"/>
<feColorMatrix in="SourceAlpha" type="matrix" values="0 0 0 0 0 0 0 0 0 0 0 0 0 0 0 0 0 0 127 0" result="hardAlpha"/>
<feMorphology radius="4" operator="erode" in="SourceAlpha" result="effect1_dropShadow_1_344"/>
<feOffset dy="4"/>
<feGaussianBlur stdDeviation="3"/>
<feComposite in2="hardAlpha" operator="out"/>
<feColorMatrix type="matrix" values="0 0 0 0 0 0 0 0 0 0 0 0 0 0 0 0 0 0 0.1 0"/>
<feBlend mode="normal" in2="BackgroundImageFix" result="effect1_dropShadow_1_344"/>
<feColorMatrix in="SourceAlpha" type="matrix" values="0 0 0 0 0 0 0 0 0 0 0 0 0 0 0 0 0 0 127 0" result="hardAlpha"/>
<feMorphology radius="3" operator="erode" in="SourceAlpha" result="effect2_dropShadow_1_344"/>
<feOffset dy="10"/>
<feGaussianBlur stdDeviation="7.5"/>
<feComposite in2="hardAlpha" operator="out"/>
<feColorMatrix type="matrix" values="0 0 0 0 0 0 0 0 0 0 0 0 0 0 0 0 0 0 0.1 0"/>
<feBlend mode="normal" in2="effect1_dropShadow_1_344" result="effect2_dropShadow_1_344"/>
<feBlend mode="normal" in="SourceGraphic" in2="effect2_dropShadow_1_344" result="shape"/>
</filter>
<filter id="filter1_f_1_344" x="104" y="142" width="40" height="16" filterUnits="userSpaceOnUse" color-interpolation-filters="sRGB">
<feFlood flood-opacity="0" result="BackgroundImageFix"/>
<feBlend mode="normal" in="SourceGraphic" in2="BackgroundImageFix" result="shape"/>
<feGaussianBlur stdDeviation="2" result="effect1_foregroundBlur_1_344"/>
</filter>
</defs>
</svg>
